<svg xmlns="http://www.w3.org/2000/svg" viewBox="0 0 191.414 191.414" width="512" height="512"><path d="M107.888 96.142l80.916-80.916c3.48-3.48 3.48-8.701 0-12.181s-8.701-3.48-12.181 0L95.707 83.961 14.791 3.045c-3.48-3.48-8.701-3.48-12.181 0s-3.48 8.701 0 12.181l80.915 80.916L2.61 177.057c-3.48 3.48-3.48 8.701 0 12.181 1.74 1.74 5.22 1.74 6.96 1.74s5.22 0 5.22-1.74l80.916-80.916 80.916 80.916c1.74 1.74 5.22 1.74 6.96 1.74 1.74 0 5.22 0 5.22-1.74 3.48-3.48 3.48-8.701 0-12.181l-80.914-80.915z" fill="#FFF"/></svg>